<mxfile host="app.diagrams.net" modified="2022-05-24T09:09:01.076Z" agent="5.0 (Macintosh; Intel Mac OS X 10_15_7) AppleWebKit/537.36 (KHTML, like Gecko) Chrome/101.0.4951.54 Safari/537.36 Edg/101.0.1210.39" etag="-NNcTzAkC-AWsXTWd6fr" version="18.1.1" type="github">
  <diagram id="JxsSC6VMPxPqDcgf8Cja" name="Page-1">
    <mxGraphModel dx="877" dy="836" grid="1" gridSize="10" guides="1" tooltips="1" connect="1" arrows="1" fold="1" page="1" pageScale="1" pageWidth="827" pageHeight="1169" math="0" shadow="0">
      <root>
        <mxCell id="0" />
        <mxCell id="1" parent="0" />
        <mxCell id="rv1jBeDcFgrTiO8zYIIH-3" value="Public subnet" style="points=[[0,0],[0.25,0],[0.5,0],[0.75,0],[1,0],[1,0.25],[1,0.5],[1,0.75],[1,1],[0.75,1],[0.5,1],[0.25,1],[0,1],[0,0.75],[0,0.5],[0,0.25]];outlineConnect=0;gradientColor=none;html=1;whiteSpace=wrap;fontSize=12;fontStyle=0;container=1;pointerEvents=0;collapsible=0;recursiveResize=0;shape=mxgraph.aws4.group;grIcon=mxgraph.aws4.group_security_group;grStroke=0;strokeColor=#248814;fillColor=#E9F3E6;verticalAlign=top;align=left;spacingLeft=30;fontColor=#248814;dashed=0;" vertex="1" parent="1">
          <mxGeometry x="140" y="140" width="600" height="260" as="geometry" />
        </mxCell>
        <mxCell id="rv1jBeDcFgrTiO8zYIIH-1" value="EC2 with public IP" style="outlineConnect=0;dashed=0;verticalLabelPosition=bottom;verticalAlign=top;align=center;html=1;shape=mxgraph.aws3.ec2;fillColor=#F58534;gradientColor=none;" vertex="1" parent="rv1jBeDcFgrTiO8zYIIH-3">
          <mxGeometry x="370" y="70" width="63.25" height="71.5" as="geometry" />
        </mxCell>
        <mxCell id="rv1jBeDcFgrTiO8zYIIH-11" value="install depencencies and app when launch" style="edgeStyle=orthogonalEdgeStyle;rounded=0;orthogonalLoop=1;jettySize=auto;html=1;entryX=0;entryY=0.5;entryDx=0;entryDy=0;entryPerimeter=0;" edge="1" parent="rv1jBeDcFgrTiO8zYIIH-3" source="rv1jBeDcFgrTiO8zYIIH-8" target="rv1jBeDcFgrTiO8zYIIH-1">
          <mxGeometry relative="1" as="geometry" />
        </mxCell>
        <mxCell id="rv1jBeDcFgrTiO8zYIIH-8" value="install the script" style="verticalLabelPosition=bottom;html=1;verticalAlign=top;align=center;strokeColor=none;fillColor=#00BEF2;shape=mxgraph.azure.script_file;pointerEvents=1;" vertex="1" parent="rv1jBeDcFgrTiO8zYIIH-3">
          <mxGeometry x="60" y="80.75" width="47.5" height="50" as="geometry" />
        </mxCell>
        <mxCell id="rv1jBeDcFgrTiO8zYIIH-12" value="Requirement: change of app security requirement to make EC2 instance run no access to internet?" style="text;html=1;align=center;verticalAlign=middle;resizable=0;points=[];autosize=1;strokeColor=none;fillColor=none;" vertex="1" parent="rv1jBeDcFgrTiO8zYIIH-3">
          <mxGeometry x="10" y="230" width="540" height="20" as="geometry" />
        </mxCell>
        <mxCell id="rv1jBeDcFgrTiO8zYIIH-13" value="Private subnet" style="points=[[0,0],[0.25,0],[0.5,0],[0.75,0],[1,0],[1,0.25],[1,0.5],[1,0.75],[1,1],[0.75,1],[0.5,1],[0.25,1],[0,1],[0,0.75],[0,0.5],[0,0.25]];outlineConnect=0;gradientColor=none;html=1;whiteSpace=wrap;fontSize=12;fontStyle=0;container=1;pointerEvents=0;collapsible=0;recursiveResize=0;shape=mxgraph.aws4.group;grIcon=mxgraph.aws4.group_security_group;grStroke=0;strokeColor=#147EBA;fillColor=#E6F2F8;verticalAlign=top;align=left;spacingLeft=30;fontColor=#147EBA;dashed=0;" vertex="1" parent="1">
          <mxGeometry x="140" y="430" width="590" height="500" as="geometry" />
        </mxCell>
        <mxCell id="rv1jBeDcFgrTiO8zYIIH-22" value="instance read artifact from S3" style="edgeStyle=orthogonalEdgeStyle;rounded=0;orthogonalLoop=1;jettySize=auto;html=1;" edge="1" parent="rv1jBeDcFgrTiO8zYIIH-13" source="rv1jBeDcFgrTiO8zYIIH-14" target="rv1jBeDcFgrTiO8zYIIH-17">
          <mxGeometry relative="1" as="geometry" />
        </mxCell>
        <mxCell id="rv1jBeDcFgrTiO8zYIIH-14" value="Amazon S3" style="sketch=0;outlineConnect=0;fontColor=#232F3E;gradientColor=none;strokeColor=#ffffff;fillColor=#232F3E;dashed=0;verticalLabelPosition=middle;verticalAlign=bottom;align=center;html=1;whiteSpace=wrap;fontSize=10;fontStyle=1;spacing=3;shape=mxgraph.aws4.productIcon;prIcon=mxgraph.aws4.s3;" vertex="1" parent="rv1jBeDcFgrTiO8zYIIH-13">
          <mxGeometry x="220" y="42.5" width="70" height="85" as="geometry" />
        </mxCell>
        <mxCell id="rv1jBeDcFgrTiO8zYIIH-16" value="push App artifact&lt;br&gt;create vpc endpoint to S3" style="edgeStyle=orthogonalEdgeStyle;rounded=0;orthogonalLoop=1;jettySize=auto;html=1;" edge="1" parent="rv1jBeDcFgrTiO8zYIIH-13" source="rv1jBeDcFgrTiO8zYIIH-15" target="rv1jBeDcFgrTiO8zYIIH-14">
          <mxGeometry relative="1" as="geometry" />
        </mxCell>
        <mxCell id="rv1jBeDcFgrTiO8zYIIH-15" value="install the script" style="verticalLabelPosition=bottom;html=1;verticalAlign=top;align=center;strokeColor=none;fillColor=#00BEF2;shape=mxgraph.azure.script_file;pointerEvents=1;" vertex="1" parent="rv1jBeDcFgrTiO8zYIIH-13">
          <mxGeometry x="20" y="60" width="47.5" height="50" as="geometry" />
        </mxCell>
        <mxCell id="rv1jBeDcFgrTiO8zYIIH-17" value="EC2 with public IP" style="outlineConnect=0;dashed=0;verticalLabelPosition=bottom;verticalAlign=top;align=center;html=1;shape=mxgraph.aws3.ec2;fillColor=#F58534;gradientColor=none;" vertex="1" parent="rv1jBeDcFgrTiO8zYIIH-13">
          <mxGeometry x="223.37" y="270" width="63.25" height="71.5" as="geometry" />
        </mxCell>
        <mxCell id="rv1jBeDcFgrTiO8zYIIH-20" value="Assign IAM policy with&amp;nbsp;&lt;br&gt;access to S3" style="edgeStyle=orthogonalEdgeStyle;rounded=0;orthogonalLoop=1;jettySize=auto;html=1;" edge="1" parent="rv1jBeDcFgrTiO8zYIIH-13" source="rv1jBeDcFgrTiO8zYIIH-19" target="rv1jBeDcFgrTiO8zYIIH-17">
          <mxGeometry relative="1" as="geometry" />
        </mxCell>
        <mxCell id="rv1jBeDcFgrTiO8zYIIH-19" value="Cloud&#xa;IAM" style="sketch=0;html=1;verticalAlign=top;labelPosition=center;verticalLabelPosition=bottom;align=center;spacingTop=-6;fontSize=11;fontStyle=1;fontColor=#999999;shape=image;aspect=fixed;imageAspect=0;image=data:image/svg+xml,PHN2ZyB4bWxucz0iaHR0cDovL3d3dy53My5vcmcvMjAwMC9zdmciIHhtbG5zOnY9Imh0dHBzOi8vdmVjdGEuaW8vbmFubyIgd2lkdGg9IjE2LjQyMDAwMDA3NjI5Mzk0NSIgaGVpZ2h0PSIyMC4wNDk5OTkyMzcwNjA1NDciIGZpbGwtcnVsZT0iZXZlbm9kZCIgdmlld0JveD0iMCAwIDE2LjQyMDAwMDA3NjI5Mzk0NSAyMC4wNDk5OTkyMzcwNjA1NDciPiYjeGE7CTxzdHlsZSB0eXBlPSJ0ZXh0L2NzcyI+JiN4YTsJLnN0MHtmaWxsOiM0Mjg1ZjQ7fSYjeGE7CS5zdDF7ZmlsbDojNjY5ZGY2O30mI3hhOwk8L3N0eWxlPiYjeGE7CTxwYXRoIGNsYXNzPSJzdDEiIGQ9Ik04LjIxIDBMMCAzLjQydjUuNjNjMCA1LjA2IDMuNSA5LjggOC4yMSAxMSA0LjcxLTEuMTUgOC4yMS01Ljg5IDguMjEtMTAuOTVWMy40MnptMCAzLjc5YTIuNjMgMi42MyAwIDAgMSAxLjAwNSA1LjA2QTIuNjMgMi42MyAwIDAgMSA2LjM1IDQuNTZhMi42MyAyLjYzIDAgMCAxIDEuODYtLjc3em00LjExIDExLjE1YTguNjQgOC42NCAwIDAgMS00LjExIDIuOTMgOC42NCA4LjY0IDAgMCAxLTQuMTEtMi45M3YtMi4yNWMwLTEuNjcgMi43NC0yLjUyIDQuMTEtMi41MnM0LjExLjg1IDQuMTEgMi41MnoiLz4mI3hhOwk8cGF0aCBjbGFzcz0ic3QwIiBkPSJNOC4yMSAwdjMuNzlhMi42MyAyLjYzIDAgMSAxIDAgNS4yNnYxLjEyYzEuMzcgMCA0LjExLjg1IDQuMTEgMi41MnYyLjI1YTguNjQgOC42NCAwIDAgMS00LjExIDIuOTNWMjBjNC43MS0xLjE1IDguMjEtNS44OSA4LjIxLTEwLjk1VjMuNDJ6Ii8+JiN4YTs8L3N2Zz4=;" vertex="1" parent="rv1jBeDcFgrTiO8zYIIH-13">
          <mxGeometry x="480" y="280.75" width="40.48" height="50" as="geometry" />
        </mxCell>
      </root>
    </mxGraphModel>
  </diagram>
</mxfile>
